<svg xmlns="http://www.w3.org/2000/svg" width="50" height="34" viewBox="0 0 50 34">
    <g fill="none" fill-rule="evenodd">
        <rect width="48" height="32" x="1" y="1" stroke="#EDF0F1" stroke-opacity=".502" stroke-width="2" rx="10"/>
        <path fill="#2B69B2" fill-rule="nonzero" d="M12.115 21.385l.84-2.46h3.66l.855 2.46h2.19l-3.615-10.29h-2.22l-3.66 10.29h1.95zm4.005-3.975h-2.685l1.29-3.9h.06l1.335 3.9zm7.32 4.11c.975 0 1.695-.285 2.19-.75h.075l.165.615h1.68V10.42h-1.965v3.465c-.345-.195-.9-.42-1.785-.42-2.01 0-3.48 1.185-3.48 4.065v.195c0 2.79 1.56 3.795 3.12 3.795zm.72-1.5c-1.095 0-1.815-.51-1.815-2.385v-.27c0-1.845.675-2.415 1.815-2.415.63 0 1.17.135 1.425.33v4.245c-.27.225-.75.495-1.425.495zm7.875 1.5c.975 0 1.695-.285 2.19-.75h.075l.165.615h1.68V10.42H34.18v3.465c-.345-.195-.9-.42-1.785-.42-2.01 0-3.48 1.185-3.48 4.065v.195c0 2.79 1.56 3.795 3.12 3.795zm.72-1.5c-1.095 0-1.815-.51-1.815-2.385v-.27c0-1.845.675-2.415 1.815-2.415.63 0 1.17.135 1.425.33v4.245c-.27.225-.75.495-1.425.495z"/>
    </g>
</svg>
