<svg xmlns="http://www.w3.org/2000/svg" width="66" height="66" viewBox="0 0 66 66">
    <defs>
        <linearGradient id="prefix__a" x1="50%" x2="50%" y1="0%" y2="100%">
            <stop offset="0%" stop-color="#E3E3E3"/>
            <stop offset="100%" stop-color="#C2C2C2"/>
        </linearGradient>
    </defs>
    <g fill="none" fill-rule="evenodd">
        <path fill="url(#prefix__a)" stroke="#979797" stroke-opacity=".228" stroke-width="4" d="M29-2c17.12 0 31 13.88 31 31 0 17.12-13.88 31-31 31C11.88 60-2 46.12-2 29-2 11.88 11.88-2 29-2z" transform="translate(4 4) rotate(180 29 29)"/>
        <path fill="#858585" fill-rule="nonzero" d="M15.33 23.438v-2.912h-3.484v2.912h3.484zm-.026 15.496V25.466h-3.432v13.468h3.432zm10.686.286c4.784 0 8.294-3.042 8.294-8.944v-.572c0-6.032-3.38-8.892-8.164-8.892s-8.294 3.016-8.294 8.918v.598c0 5.98 3.38 8.892 8.164 8.892zm.078-2.808c-3.042 0-4.342-2.132-4.342-6.11v-.91c0-3.536 1.43-5.798 4.264-5.798 3.172.026 4.42 2.21 4.42 6.136v.884c0 3.536-1.456 5.798-4.342 5.798zm15.574 2.808c4.394 0 6.552-2.08 6.552-5.564 0-3.302-1.69-4.498-4.602-5.278l-1.56-.416c-1.69-.442-2.262-.988-2.262-2.236 0-1.352.988-2.08 2.808-2.08 2.002 0 3.458.494 4.654.91v-2.782c-1.04-.52-2.392-.962-4.888-.962-4.108 0-6.11 2.106-6.11 5.174 0 3.302 1.638 4.55 4.212 5.226l1.612.416c1.898.494 2.496 1.014 2.496 2.418 0 1.404-.988 2.34-3.25 2.34-1.976 0-3.666-.468-5.122-1.092v2.834c1.248.65 3.068 1.092 5.46 1.092z" transform="translate(4 4)"/>
    </g>
</svg>
