<svg xmlns="http://www.w3.org/2000/svg" width="139" height="40" viewBox="0 0 139 40">
    <g fill="none" fill-rule="evenodd">
        <rect width="137" height="38" x="1" y="1" stroke="#EDF0F1" stroke-opacity=".502" stroke-width="2" rx="10"/>
        <g fill="#676A73">
            <path d="M17.136 0c2.762 0 5 2.239 5 5v12.136c0 2.762-2.238 5-5 5H5c-2.761 0-5-2.238-5-5V5c0-2.761 2.239-5 5-5h12.136zm-6.068 5.152c-.436 0-.79.354-.79.79v4.651h-4.65l-.077.004c-.4.038-.714.376-.714.787 0 .436.354.79.79.79h4.65v4.65l.004.076c.038.401.376.715.787.715.437 0 .79-.354.79-.79v-4.65h4.65l.077-.004c.4-.039.714-.376.714-.787 0-.437-.354-.791-.79-.791h-4.65v-4.65l-.004-.076c-.038-.401-.376-.715-.787-.715z" transform="translate(8 9)"/>
            <path fill-rule="nonzero" d="M26.269 14.83l.62-1.814h2.7l.63 1.815h1.617l-2.668-7.593H27.53l-2.7 7.593h1.439zm2.955-2.932h-1.981l.951-2.878h.045l.985 2.878zm5.401 3.032c.72 0 1.25-.21 1.616-.553h.055l.122.454h1.24V6.74h-1.45v2.557c-.255-.144-.664-.31-1.317-.31-1.483 0-2.568.874-2.568 3v.143c0 2.059 1.15 2.8 2.302 2.8zm.531-1.106c-.808 0-1.339-.377-1.339-1.76v-.2c0-1.36.498-1.781 1.34-1.781.464 0 .863.1 1.05.243v3.132c-.198.166-.553.366-1.05.366zm5.811 1.106c.72 0 1.25-.21 1.616-.553h.055l.122.454H44V6.74h-1.45v2.557c-.255-.144-.664-.31-1.317-.31-1.483 0-2.568.874-2.568 3v.143c0 2.059 1.151 2.8 2.302 2.8zm.531-1.106c-.808 0-1.339-.377-1.339-1.76v-.2c0-1.36.498-1.781 1.34-1.781.464 0 .863.1 1.05.243v3.132c-.198.166-.553.366-1.05.366zm8.711 1.073c.564 0 .908-.122 1.118-.232v-.963c-.166.055-.41.088-.62.088-.542 0-.753-.166-.753-.653v-2.966h1.318V9.097h-1.318v-1.35h-1.427v1.35h-.764v1.074h.764v3.199c0 1.14.642 1.527 1.682 1.527zm4.549.033c1.627 0 2.778-1.029 2.778-2.91v-.155c0-1.849-.996-2.878-2.767-2.878-1.627 0-2.778 1.051-2.778 2.922v.155c0 1.815.974 2.866 2.767 2.866zm.022-1.062c-.73 0-1.295-.376-1.295-1.804v-.244c0-1.228.465-1.76 1.262-1.76.73 0 1.295.355 1.295 1.805v.265c0 1.207-.465 1.738-1.262 1.738zm8.113.963v-4.383c.321-.133.775-.288 1.173-.288.709 0 .908.221.908.764v3.907h1.46v-4.25c0-1.14-.575-1.594-1.67-1.594-.709 0-1.362.243-1.805.586h-.066V6.74h-1.45v8.09h1.45zm7.25.1c1.627 0 2.778-1.03 2.778-2.912v-.154c0-1.849-.996-2.878-2.767-2.878-1.627 0-2.778 1.051-2.778 2.922v.155c0 1.815.974 2.866 2.767 2.866zm.022-1.063c-.73 0-1.295-.376-1.295-1.804v-.244c0-1.228.465-1.76 1.262-1.76.73 0 1.295.355 1.295 1.805v.265c0 1.207-.465 1.738-1.262 1.738zm5.202.963v-4.383c.32-.122.697-.288 1.062-.288.61 0 .808.232.808.753v3.918h1.461v-4.15c0-.078 0-.145-.01-.222.376-.155.719-.299 1.073-.299.598 0 .808.232.808.753v3.918h1.45v-4.284c0-1.117-.587-1.56-1.583-1.56-.664 0-1.306.243-1.881.642h-.056c-.277-.443-.741-.642-1.383-.642-.687 0-1.273.277-1.75.642h-.054v-.532h-1.395v5.734h1.45zm10.481.1c.997 0 1.672-.266 2.07-.532v-.952c-.487.21-1.03.377-1.738.377-1.04 0-1.638-.366-1.737-1.472h3.674v-.532c0-1.837-.73-2.822-2.468-2.822-1.55 0-2.69.996-2.69 2.889v.144c0 1.837.964 2.9 2.89 2.9zm.842-3.52h-2.247c.077-1.085.653-1.384 1.173-1.384.708 0 1.074.377 1.074 1.384zm6.961 3.52c1.484 0 2.28-.62 2.28-1.827 0-.996-.431-1.483-1.56-1.715l-.542-.111c-.532-.1-.742-.233-.742-.609 0-.398.321-.598.974-.598.664 0 1.195.155 1.55.277v-1.04c-.399-.177-.908-.31-1.694-.31-1.483 0-2.191.697-2.191 1.77 0 1.063.575 1.506 1.472 1.683l.53.122c.588.11.798.277.798.653 0 .398-.31.62-1.085.62-.797 0-1.25-.166-1.693-.354v1.04c.442.243 1.15.398 1.903.398zm5.723 0c.819 0 1.35-.21 1.715-.432v-1.052c-.288.144-.763.343-1.439.343-1.051 0-1.538-.52-1.538-1.782v-.221c0-1.118.564-1.65 1.494-1.65.664 0 .985.112 1.428.289V9.33c-.365-.21-.82-.343-1.56-.343-1.694 0-2.867.963-2.867 2.933v.166c0 1.881 1.018 2.844 2.767 2.844zm4.106-.1v-4.15c.354-.211.852-.355 1.361-.355.144 0 .332.022.454.044V9.086c-.044-.033-.177-.044-.332-.044-.609 0-1.184.299-1.483.73h-.055v-.675h-1.395v5.734h1.45zm5.268.1c.997 0 1.672-.266 2.07-.532v-.952c-.487.21-1.03.377-1.738.377-1.04 0-1.638-.366-1.737-1.472h3.674v-.532c0-1.837-.73-2.822-2.468-2.822-1.55 0-2.69.996-2.69 2.889v.144c0 1.837.964 2.9 2.89 2.9zm.842-3.52h-2.247c.077-1.085.653-1.384 1.173-1.384.708 0 1.074.377 1.074 1.384zm5.013 3.52c.997 0 1.672-.266 2.07-.532v-.952c-.487.21-1.03.377-1.737.377-1.04 0-1.639-.366-1.738-1.472h3.674v-.532c0-1.837-.73-2.822-2.468-2.822-1.55 0-2.69.996-2.69 2.889v.144c0 1.837.964 2.9 2.89 2.9zm.842-3.52h-2.247c.077-1.085.653-1.384 1.173-1.384.708 0 1.074.377 1.074 1.384zm3.873 3.42v-4.383c.321-.133.775-.288 1.174-.288.708 0 .907.221.907.764v3.907h1.461v-4.25c0-1.14-.575-1.594-1.671-1.594-.708 0-1.384.254-1.87.62h-.056v-.51h-1.394v5.734h1.45z" transform="translate(8 9)"/>
        </g>
    </g>
</svg>
